<?xml version="1.0" encoding="iso-8859-1"?>
<!-- Generator: Adobe Illustrator 19.0.0, SVG Export Plug-In . SVG Version: 6.00 Build 0)  -->
<svg xmlns="http://www.w3.org/2000/svg" xmlns:xlink="http://www.w3.org/1999/xlink" version="1.1" id="Capa_1" x="0px" y="0px" viewBox="0 0 512 512" style="enable-background:new 0 0 512 512;" xml:space="preserve" width="512px" height="512px">
<g>
	<g>
		<path d="M256,426.667c-11.776,0-21.333,9.557-21.333,21.333s9.557,21.333,21.333,21.333s21.333-9.557,21.333-21.333    S267.776,426.667,256,426.667z" fill="#26ad91"/>
	</g>
</g>
<g>
	<g>
		<path d="M341.76,42.667h-0.213c-5.888,0-10.56,4.779-10.56,10.667S335.872,64,341.76,64s10.667-4.779,10.667-10.667    S347.648,42.667,341.76,42.667z" fill="#26ad91"/>
	</g>
</g>
<g>
	<g>
		<path d="M288.469,149.312c-11.925,0-23.275,4.267-32.469,11.968c-9.195-7.701-20.544-11.968-32.469-11.968    c-29.141,0-52.864,25.536-52.864,56.896c0,13.995,5.099,27.627,14.763,39.445c14.975,18.304,60.735,68.715,62.677,70.848    C250.133,318.72,252.992,320,256,320s5.867-1.28,7.893-3.499c1.941-2.133,47.701-52.565,62.677-70.848    c9.664-11.819,14.763-25.451,14.763-39.445C341.333,174.827,317.61,149.312,288.469,149.312z M310.038,232.171    c-10.923,13.376-39.936,45.675-54.037,61.291c-14.08-15.616-43.093-47.936-54.037-61.291C197.419,226.624,192,217.6,192,206.229    c0-19.605,14.144-35.562,31.531-35.562c9.216,0,17.941,4.544,23.957,12.48c4.053,5.312,12.971,5.312,17.003,0    c6.037-7.936,14.763-12.48,23.979-12.48c17.387,0,31.531,15.957,31.531,35.563C320.001,217.601,314.582,226.625,310.038,232.171z" fill="#26ad91"/>
	</g>
</g>
<g>
	<g>
		<path d="M341.333,0H170.667C129.493,0,96,33.493,96,74.667v362.667C96,478.507,129.493,512,170.667,512h170.667    C382.507,512,416,478.507,416,437.333V74.667C416,33.493,382.507,0,341.333,0z M117.333,74.667    c0-29.397,23.936-53.333,53.333-53.333h170.667c29.397,0,53.333,23.936,53.333,53.333v10.666H117.333V74.667z M117.333,106.667    h277.333V384H117.333V106.667z M394.667,437.333L394.667,437.333c0,29.397-23.936,53.333-53.333,53.333H170.667    c-29.397,0-53.333-23.936-53.333-53.333v-32h277.333V437.333z" fill="#26ad91"/>
	</g>
</g>
<g>
	<g>
		<path d="M277.333,42.667h-42.667c-5.888,0-10.667,4.779-10.667,10.667S228.779,64,234.667,64h42.667    C283.221,64,288,59.221,288,53.333S283.221,42.667,277.333,42.667z" fill="#26ad91"/>
	</g>
</g>
<g>
</g>
<g>
</g>
<g>
</g>
<g>
</g>
<g>
</g>
<g>
</g>
<g>
</g>
<g>
</g>
<g>
</g>
<g>
</g>
<g>
</g>
<g>
</g>
<g>
</g>
<g>
</g>
<g>
</g>
</svg>
